<svg width="146" height="132" viewBox="0 0 146 132" fill="none" xmlns="http://www.w3.org/2000/svg">
<path fill-rule="evenodd" clip-rule="evenodd" d="M109.051 25.261C117.881 25.261 125.039 19.6062 125.039 12.6305C125.039 5.65487 117.881 0 109.051 0C100.221 0 93.0631 5.65487 93.0631 12.6305C93.0631 16.468 95.2294 19.9057 98.6486 22.2222C97.7364 23.146 96.9679 24.1109 96.6748 24.4973C93.4352 28.7695 90.814 33.8651 88.7764 39.2382C88.5723 39.7763 88.3589 40.464 88.1501 41.2111C84.0964 38.7835 79.3555 37.38 74.287 37.3611C60.7561 37.3107 49.517 47.1455 47.4396 60.0557C40.1717 56.7282 32.1822 54.815 25.4925 53.6689C25.2964 53.6353 25.0831 53.5935 24.8562 53.5466C22.9839 49.6755 18.5916 46.7629 13.3648 46.3901C6.23756 45.8819 0.257553 50.2885 0.00805724 56.2327C-0.241438 62.1769 5.33406 67.4077 12.4613 67.916C18.4328 68.3418 23.599 65.3174 25.2642 60.8293C32.641 61.2012 39.8811 62.4938 47.1004 64.8804C47.235 72.201 50.2867 78.8184 55.1472 83.6205C46.7287 89.8495 33.5759 102.894 30.2002 109.705C28.4192 109.594 26.5048 109.761 24.5403 110.243C16.6288 112.184 10.9002 118.501 11.7452 124.351C12.5901 130.202 19.6886 133.37 27.6001 131.429C35.5116 129.488 41.2402 123.171 40.3952 117.321C39.9933 114.538 38.1764 112.362 35.5301 111.054C40.8987 103.176 46.8968 95.7999 53.0156 88.9573C53.6284 88.2721 55.0987 86.5874 56.5401 84.9044C61.2748 88.9743 67.4322 91.4451 74.1684 91.4702C81.7226 91.4983 88.5624 88.4453 93.4925 83.4962C98.2068 89.5437 103.662 96.8285 104.508 98.8845C104.538 98.9555 104.568 99.0237 104.6 99.0891C102.167 101.522 100.627 104.772 100.474 108.428C100.127 116.692 106.993 123.901 115.81 124.53C124.627 125.158 132.056 118.969 132.402 110.705C132.749 102.442 125.883 95.233 117.066 94.6042C113.869 94.3762 110.854 95.0449 108.293 96.384C106.901 92.8826 98.9233 85.8123 95.3381 82.6348C95.1321 82.4522 94.9406 82.2825 94.7657 82.127C98.8617 77.4065 101.345 71.2537 101.359 64.5167C101.36 64.1369 101.353 63.759 101.339 63.383C102.175 63.7101 103.018 64.0639 103.859 64.4169C106.835 65.6669 109.788 66.9068 112.381 66.917C112.791 66.9186 113.466 66.8664 114.215 66.7731C114.829 73.7452 120.392 80.2077 127.894 82.0445C136.572 84.1694 144.557 79.2983 145.729 71.1646C146.902 63.0308 140.817 54.7144 132.139 52.5894C123.46 50.4645 115.475 55.3356 114.303 63.4693C114.289 63.5631 114.277 63.6568 114.265 63.7505C110.329 62.6023 104.985 61.9377 101.227 61.7623C100.393 53.3581 95.703 46.0747 88.9425 41.7043C89.8097 39.6935 90.7583 37.744 91.8123 35.8666C93.8893 32.1673 96.2964 28.6703 99.0883 25.8615C99.2886 25.6601 99.6615 25.3793 100.046 25.0897C100.614 24.6623 101.207 24.2157 101.308 23.9767C101.567 24.0862 101.85 24.0956 102.115 24.0139C104.213 24.8131 106.566 25.261 109.051 25.261Z" fill="#FACC15"/>
</svg>