<svg width="30" height="26" viewBox="0 0 30 26" fill="" xmlns="http://www.w3.org/2000/svg">
<path fill-rule="evenodd" stroke="" clip-rule="evenodd" d="M29.2414 11.0694L14.6207 -3.05176e-05L0 11.0694H7.43477L7.43477 25.3292H21.3121L21.3121 11.0694H29.2414Z" fill="#737373"/>
<path fill-rule="evenodd" stroke="" clip-rule="evenodd" d="M14.5366 13.1859C14.9483 13.1859 15.2821 13.4849 15.2821 13.8536V17.1921H19.0096C19.4214 17.1921 19.7551 17.491 19.7551 17.8598C19.7551 18.2286 19.4213 18.5275 19.0096 18.5275H15.2821V21.866C15.2821 22.2348 14.9483 22.5337 14.5366 22.5337C14.1249 22.5337 13.7911 22.2348 13.7911 21.866V18.5275H10.0636C9.65189 18.5275 9.31812 18.2286 9.31812 17.8598C9.31812 17.491 9.65189 17.1921 10.0636 17.1921H13.7911V13.8536C13.7911 13.4849 14.1249 13.1859 14.5366 13.1859Z" fill="#404040"/>
</svg>
