<svg width="26" height="26" viewBox="0 0 26 26" fill="none" xmlns="http://www.w3.org/2000/svg">
<path fill-rule="evenodd" clip-rule="evenodd" d="M3.8999 22.1C3.8999 21.382 4.48193 20.8 5.1999 20.8H20.7999C21.5179 20.8 22.0999 21.382 22.0999 22.1C22.0999 22.8179 21.5179 23.4 20.7999 23.4H5.1999C4.48193 23.4 3.8999 22.8179 3.8999 22.1ZM8.18066 12.0807C8.68835 11.5731 9.51146 11.5731 10.0191 12.0807L11.6999 13.7615L11.6999 3.89998C11.6999 3.18201 12.2819 2.59998 12.9999 2.59998C13.7179 2.59998 14.2999 3.182 14.2999 3.89998L14.2999 13.7615L15.9807 12.0807C16.4883 11.5731 17.3115 11.5731 17.8191 12.0807C18.3268 12.5884 18.3268 13.4115 17.8191 13.9192L13.9191 17.8192C13.6753 18.063 13.3447 18.2 12.9999 18.2C12.6551 18.2 12.3245 18.063 12.0807 17.8192L8.18066 13.9192C7.67298 13.4115 7.67298 12.5884 8.18066 12.0807Z" fill="#737373"/>
</svg>
