<svg width="20" height="21" viewBox="0 0 20 21" fill="none" xmlns="http://www.w3.org/2000/svg">
<path d="M7.76651 12.938H3.00258C1.51582 12.938 0.548825 11.3596 1.21373 10.018L4.71373 2.95606C5.05251 2.27249 5.74504 1.8407 6.50258 1.8407H10.5203C10.6838 1.8407 10.8467 1.86093 11.0054 1.90094L14.7665 2.84955M7.76651 12.938V17.9823C7.76651 19.0966 8.66194 20 9.76651 20H9.86199C10.3615 20 10.7665 19.5914 10.7665 19.0875C10.7665 18.3668 10.9779 17.6623 11.3742 17.0627L14.7665 11.9292V2.84955M7.76651 12.938H9.76651M14.7665 2.84955H16.7665C17.8711 2.84955 18.7665 3.7529 18.7665 4.86725V10.9203C18.7665 12.0347 17.8711 12.938 16.7665 12.938H14.2665" stroke="#F43F5E" stroke-width="2" stroke-linecap="round" stroke-linejoin="round"/>
</svg>
