<svg width="35" height="36" viewBox="0 0 35 36" fill="none" xmlns="http://www.w3.org/2000/svg">
      <path fill-rule="evenodd" clip-rule="evenodd" d="M31.4742 18C31.4742 25.9529 25.2113 32.4 17.4856 32.4C9.75997 32.4 3.49707 25.9529 3.49707 18C3.49707 10.0471 9.75997 3.59998 17.4856 3.59998C25.2113 3.59998 31.4742 10.0471 31.4742 18ZM20.9828 12.6C20.9828 14.5882 19.4171 16.2 17.4856 16.2C15.5542 16.2 13.9885 14.5882 13.9885 12.6C13.9885 10.6118 15.5542 8.99998 17.4856 8.99998C19.4171 8.99998 20.9828 10.6118 20.9828 12.6ZM17.4855 19.8C13.9577 19.8 10.9179 21.9509 9.53617 25.0483C11.4601 27.3456 14.3079 28.8 17.4856 28.8C20.6633 28.8 23.511 27.3457 25.4349 25.0484C24.0532 21.951 21.0134 19.8 17.4855 19.8Z" fill="#737373"/>
</svg>
